<svg width="55" height="56" fill="none" xmlns="http://www.w3.org/2000/svg"><g clip-path="url(#clip0)" fill="#1943EF"><path d="M27.5 55.059c7.34 0 19.766-.997 19.766-4.727v-.163a1.538 1.538 0 0 0-.757-1.332 4.657 4.657 0 0 0-.962-.653v-4.297a.86.86 0 0 0-1.719 0v4.297a.86.86 0 0 0 .052.266.858.858 0 0 0 0 .344.86.86 0 0 0 .498.86l.258.11c.3.138.653.293.86.405l.06.069c-.576 1.074-6.927 2.921-18.047 2.921-11.12 0-17.437-1.847-18.004-2.913l.068-.086c.198-.12.542-.266.86-.395l.258-.112a.86.86 0 0 0 .49-.86.86.86 0 0 0 0-.334.86.86 0 0 0-.01-.275V30.85c4.22 1.418 11.413 1.865 16.329 1.865 1.46 0 2.922 0 4.297-.103a.86.86 0 1 0-.078-1.719 87.04 87.04 0 0 1-4.296.103c-8.542 0-14.275-1.1-16.715-2.097a.86.86 0 0 0-.292-.129 2.097 2.097 0 0 1-.963-.722c.306-.185.625-.349.954-.49l.24-.102a.806.806 0 0 0 .095-.07.858.858 0 0 0 .172-.12c.063-.09.124-.18.18-.275a.857.857 0 0 0 0-.206.809.809 0 0 0 .078-.086V7.647c4.22 1.418 11.412 1.865 16.328 1.865 4.916 0 12.109-.447 16.328-1.865v19.052a.833.833 0 0 0 0 .112.858.858 0 0 0 0 .206 4.8 4.8 0 0 0 .18.275c.053.047.11.088.172.12a.8.8 0 0 0 .095.07l.24.102c.32.129.63.278.929.447a2.81 2.81 0 0 1-1.152.757c-1.28.567-3.773 1.28-8.327 1.718a.86.86 0 1 0 .086 1.719h.086a38.292 38.292 0 0 0 7.691-1.384v9.608a.86.86 0 0 0 1.719 0V30.137c1.057-.576 1.719-1.272 1.719-2.131 0-.997-.774-1.427-1.72-1.848V6.934c1.075-.585 1.72-1.29 1.72-2.14C47.266 1.055 34.839.059 27.5.059a92.6 92.6 0 0 0-6.076.197.861.861 0 0 0 .12 1.719 88.916 88.916 0 0 1 5.956-.198c11.404 0 17.815 1.96 18.047 3-.052.232-.421.507-1.066.799a.858.858 0 0 0-.275.12c-2.44.997-8.172 2.097-16.706 2.097-8.534 0-14.231-1.091-16.69-2.08a.859.859 0 0 0-.326-.146c-.618-.283-.98-.55-1.03-.782-.052-.232 1.589-1.564 7.845-2.397a.867.867 0 0 0-.223-1.72c-6.196.852-9.342 2.227-9.342 4.117 0 .86.645 1.547 1.72 2.14v19.216c-.946.42-1.72.859-1.72 1.847 0 .86.645 1.547 1.72 2.14v18.056a4.65 4.65 0 0 0-.963.661 1.538 1.538 0 0 0-.757 1.324v.163c0 3.73 12.427 4.727 19.766 4.727z"/><path d="M26.77 13.362c-.456.747-4.426 7.322-4.426 9.9a5.156 5.156 0 1 0 10.312 0c0-2.578-3.97-9.153-4.425-9.9a.86.86 0 0 0-1.462 0zm4.168 9.9a3.438 3.438 0 0 1-6.875 0c0-1.332 1.882-5.053 3.437-7.735 1.555 2.682 3.438 6.403 3.438 7.735z"/><path d="M26.065 23.503a.86.86 0 0 0 .223 1.194c.386.27.845.414 1.315.413a2.527 2.527 0 0 0 1.375-.413.86.86 0 0 0 .24-1.177.86.86 0 0 0-1.202-.258.696.696 0 0 1-.757 0 .86.86 0 0 0-1.194.24z"/></g><defs><clipPath id="clip0"><path fill="#fff" d="M0 .059h55v55H0z"/></clipPath></defs></svg>