<svg width="60" height="62" fill="none" xmlns="http://www.w3.org/2000/svg"><g clip-path="url(#clip0)"><path d="M57.234 58.676h-2.57V20.734c0-1.766-1.413-3.203-3.15-3.203h-5.745c-1.737 0-3.15 1.437-3.15 3.203v37.942h-6.527V37.925c0-1.766-1.413-3.203-3.15-3.203h-5.745c-1.737 0-3.15 1.437-3.15 3.203v20.751H17.52V47.929c0-1.766-1.413-3.203-3.15-3.203H8.625c-1.737 0-3.15 1.437-3.15 3.203v10.747h-2.71c-.647 0-1.171.533-1.171 1.191s.524 1.192 1.172 1.192h54.468c.647 0 1.172-.534 1.172-1.192 0-.658-.525-1.191-1.172-1.191zm-42.058 0H7.818V47.929c0-.452.362-.82.807-.82h5.745c.444 0 .806.368.806.82v10.747zm18.572 0H26.39V37.925c0-.453.362-.82.807-.82h5.745c.444 0 .806.367.806.82v20.751zm18.572 0h-7.358V20.734c0-.452.362-.82.807-.82h5.745c.444 0 .806.368.806.82v37.942z" fill="#1943EF"/></g><defs><clipPath id="clip0"><path fill="#fff" d="M0 .059h60v61H0z"/></clipPath></defs></svg>