<svg width="56" height="57" fill="none" xmlns="http://www.w3.org/2000/svg"><g clip-path="url(#clip0)" fill="#1943EF"><path d="M55.997 2.457A1.384 1.384 0 0 0 54.539.999c-.022 0-.044-.003-.067-.003H46.07a1.389 1.389 0 1 0 0 2.778h5.189L37.527 17.505l-5.178-5.178a1.39 1.39 0 0 0-1.965 0l-24.97 24.97A1.39 1.39 0 0 0 7.38 39.26l23.987-23.988 5.178 5.179a1.39 1.39 0 0 0 1.965 0L53.222 5.738v4.697a1.389 1.389 0 1 0 2.778 0V2.524c0-.023-.002-.045-.003-.067zM1.715 44.514a1.389 1.389 0 1 0 0-2.778 1.389 1.389 0 0 0 0 2.778zm-.09 9.42h52.887v2.125H1.625z"/></g><defs><clipPath id="clip0"><path fill="#fff" d="M0 .059h56v56H0z"/></clipPath></defs></svg>