<svg width="56" height="56" fill="none" xmlns="http://www.w3.org/2000/svg"><g clip-path="url(#clip0)" fill="#1943EF"><path d="M47.446 8.113C42.25 2.92 35.346.06 28 .06c-7.346 0-14.251 2.86-19.446 8.054C3.361 13.307.5 20.213.5 27.56c0 7.345 2.86 14.25 8.054 19.445C13.75 52.198 20.654 55.06 28 55.06c7.346 0 14.251-2.86 19.446-8.055C52.64 41.81 55.5 34.904 55.5 27.56c0-7.346-2.86-14.252-8.054-19.446zM28 51.836c-13.387 0-24.277-10.89-24.277-24.277S14.613 3.28 28 3.28s24.277 10.892 24.277 24.28c0 13.386-10.89 24.277-24.277 24.277z"/><path d="M35.072 26.276a6.238 6.238 0 0 0 1.59-4.164 6.22 6.22 0 0 0-1.838-4.426 6.22 6.22 0 0 0-4.425-1.838h-.788v-3.114H26.39v3.114h-7.094v3.222h2.631v16.977h-2.631v3.223h7.094v3.113h3.222V39.27h1.647c3.892 0 7.059-3.167 7.059-7.06a7.01 7.01 0 0 0-2.072-4.986 7.15 7.15 0 0 0-1.173-.948zM25.15 19.07h5.25c.807 0 1.57.318 2.146.895a3.02 3.02 0 0 1 .895 2.146 3.044 3.044 0 0 1-2.992 3.04h-5.3v-6.08h.001zm6.11 16.977h-6.11v-7.671l6.11-.002a3.8 3.8 0 0 1 2.707 1.129 3.808 3.808 0 0 1 1.128 2.708 3.84 3.84 0 0 1-3.836 3.836z"/></g><defs><clipPath id="clip0"><path fill="#fff" d="M.5.059h55v55H.5z"/></clipPath></defs></svg>