<svg width="72" height="73" fill="none" xmlns="http://www.w3.org/2000/svg"><g clip-path="url(#clip0)" fill="#1943EF"><path d="M66.811 48.63a1.155 1.155 0 0 0-1.067-.693h-5.696l-4.84-11.2a1.177 1.177 0 0 0-1.066-.715h-5.726l-4.84-11.2a1.178 1.178 0 0 0-1.066-.716H29.492a1.177 1.177 0 0 0-1.067.716l-4.84 11.2h-5.726a1.175 1.175 0 0 0-1.066.716l-4.84 11.2H6.257a1.155 1.155 0 0 0-1.067.692L.096 60.4a1.17 1.17 0 0 0 1.066 1.632H24.37l.028-.001.028.001h46.413a1.169 1.169 0 0 0 1.068-1.63L66.81 48.63zm-19.179 9.283l-3.373-7.796h6.746l-3.373 7.796zm-23.235.065l-3.401-7.861h6.803l-3.402 7.861zm33.069-10.186H37.798l4.088-9.445h11.49l4.088 9.445zM36 46.063l-3.402-7.861h6.803L36 46.063zm-5.746-19.632h11.49l4.09 9.445H26.166l4.088-9.445zm-11.63 11.916h11.49l4.089 9.445H14.535l4.088-9.445zM2.931 59.707l4.088-9.445h11.492l4.088 9.445H2.932zm23.264 0l4.087-9.445h11.491l4.088 9.445H26.195zm23.205 0l4.088-9.445H64.98l4.088 9.445H49.401zM36 18.585c.642 0 1.163-.52 1.163-1.163v-6.248a1.163 1.163 0 0 0-2.325 0v6.248c0 .642.52 1.163 1.162 1.163zm23.483 8.149c.308 0 .604-.122.822-.34l4.356-4.357a1.162 1.162 0 1 0-1.645-1.643l-4.355 4.355a1.162 1.162 0 0 0 .822 1.985zm-47.932-.341a1.162 1.162 0 0 0 1.644-1.644l-4.356-4.355a1.162 1.162 0 1 0-1.644 1.643l4.356 4.356zm9.796-6.089a1.162 1.162 0 1 0 2.124-.944l-2.503-5.629a1.162 1.162 0 1 0-2.123.945l2.502 5.628zm26.727.133a1.163 1.163 0 0 0 1.511-.647l2.288-5.72a1.162 1.162 0 1 0-2.159-.863l-2.287 5.72a1.162 1.162 0 0 0 .647 1.51z"/></g><defs><clipPath id="clip0"><path fill="#fff" d="M0 .059h72v72H0z"/></clipPath></defs></svg>