<svg width="56" height="56" fill="none" xmlns="http://www.w3.org/2000/svg"><path d="M38.703 27.948A12.35 12.35 0 1 0 26.353 15.6a12.363 12.363 0 0 0 12.35 12.35zm0-23.051A10.703 10.703 0 1 1 28 15.599 10.715 10.715 0 0 1 38.703 4.897z" fill="#1943EF"/><path d="M49.405 49.353h-5.763V30.418a.823.823 0 0 0-.823-.823h-8.233a.823.823 0 0 0-.823.823v18.935H30.47V27.125a.823.823 0 0 0-.823-.823h-8.233a.823.823 0 0 0-.823.823v22.228h-3.294V17.246a.823.823 0 0 0-.823-.824H8.241a.823.823 0 0 0-.823.824v32.107H3.302a.823.823 0 1 0 0 1.647h46.103a.823.823 0 1 0 0-1.647zm-40.34 0V18.07h6.586v31.284H9.065zm13.172 0V27.948h6.586v21.405h-6.586zm13.173 0V31.241h6.586v18.112h-6.587zm17.288 0h-.823a.824.824 0 0 0 0 1.647h.823a.823.823 0 0 0 0-1.647zM38.703 25.478a9.88 9.88 0 1 0-9.88-9.879 9.89 9.89 0 0 0 9.88 9.88zm0-18.112A8.233 8.233 0 1 1 30.47 15.6a8.242 8.242 0 0 1 8.233-8.233z" fill="#1943EF"/><path d="M36.233 18.07a.823.823 0 0 0 0 1.646h1.646a.823.823 0 1 0 1.647 0h1.646a.823.823 0 0 0 .824-.824V15.6a.823.823 0 0 0-.824-.823h-4.116V13.13h4.116a.823.823 0 1 0 0-1.647h-1.646a.823.823 0 1 0-1.647 0h-1.646a.823.823 0 0 0-.824.823V15.6a.823.823 0 0 0 .824.824h4.116v1.646h-4.116z" fill="#1943EF"/></svg>