<svg width="56" height="56" fill="none" xmlns="http://www.w3.org/2000/svg"><path d="M40.441 9.685L38.695 11.4h-2.312a.65.65 0 0 0-.456.185.627.627 0 0 0-.189.448v2.271l-2.202 2.163h-2.312a.65.65 0 0 0-.456.185.627.627 0 0 0-.189.448v2.27l-2.201 2.163h-2.313a.651.651 0 0 0-.456.186.628.628 0 0 0-.188.448v2.27l-2.847 2.796H20.37a7.494 7.494 0 0 1 1.176-2.931 7.646 7.646 0 0 1 2.289-2.208l-.696-1.066a8.9 8.9 0 0 0-3.59 4.357 8.718 8.718 0 0 0-.213 5.602 8.868 8.868 0 0 0 3.25 4.607A9.138 9.138 0 0 0 28 37.367h8.282A12.387 12.387 0 0 1 28 40.533c-6.756 0-12.252-5.398-12.252-12.033h-1.29c0 1.067.13 2.13.39 3.167H9.943v-6.334h5.159a.653.653 0 0 0 .358-.106.637.637 0 0 0 .238-.285l1.041-2.47a.623.623 0 0 0-.14-.69L12.954 18.2l4.56-4.479 3.647 3.583a.648.648 0 0 0 .703.137l2.515-1.023a.627.627 0 0 0 .398-.585v-5.066h6.448v3.8h1.29v-4.434a.628.628 0 0 0-.189-.447.651.651 0 0 0-.456-.186h-7.738a.651.651 0 0 0-.456.186.628.628 0 0 0-.189.447v5.277l-1.718.7-3.8-3.732a.651.651 0 0 0-.912 0l-5.471 5.374a.628.628 0 0 0 0 .896l3.799 3.73-.712 1.689H9.3a.65.65 0 0 0-.456.185.627.627 0 0 0-.188.448v7.6c0 .168.067.33.188.448a.65.65 0 0 0 .456.185h5.373l.712 1.688-3.8 3.731a.628.628 0 0 0 0 .896l5.473 5.374a.651.651 0 0 0 .912 0l3.799-3.731 1.718.699v5.277c0 .168.068.329.189.448a.65.65 0 0 0 .456.185h7.738a.65.65 0 0 0 .456-.185.628.628 0 0 0 .189-.448V41.59l1.718-.7 3.8 3.732a.651.651 0 0 0 .912 0l5.471-5.374a.628.628 0 0 0 0-.896l-1.003-.985H46.7a.651.651 0 0 0 .456-.186.628.628 0 0 0 .189-.448V15.2a.628.628 0 0 0-.19-.448.65.65 0 0 0-.455-.185h-5.16a.65.65 0 0 0-.455.185.627.627 0 0 0-.189.448v4.433h-4.514a.651.651 0 0 0-.456.186.628.628 0 0 0-.189.448v3.166h-4.514a.651.651 0 0 0-.456.186.628.628 0 0 0-.189.448v3.8h-4.514a.65.65 0 0 0-.456.185.628.628 0 0 0-.188.448v2.533h-4.717a7.442 7.442 0 0 1-.442-2.533h2.58a.65.65 0 0 0 .455-.186l3.036-2.98h2.312a.65.65 0 0 0 .456-.186.628.628 0 0 0 .189-.448v-2.27l2.201-2.163h2.313a.651.651 0 0 0 .456-.186.628.628 0 0 0 .189-.448v-2.27L36.65 15.2h2.312a.65.65 0 0 0 .456-.185.628.628 0 0 0 .19-.448v-2.271l1.556-1.53h6.181V9.5h-6.448a.65.65 0 0 0-.456.185zM17.512 43.28l-4.56-4.479 3.47-3.407a13.527 13.527 0 0 0 4.56 4.478l-3.47 3.408zm7.264 2.954v-4.815c2.118.51 4.33.51 6.448-.001v4.816h-6.448zM43.047 38.8l-4.56 4.479-3.468-3.407a13.493 13.493 0 0 0 3.073-2.505h3.496l1.46 1.433zm-.86-22.967h3.869V36.1h-3.87V15.833zm-5.16 5.067h3.87v15.2h-3.87V20.9zm-5.158 3.8h3.87v11.4h-3.87V24.7zm-5.159 4.433h3.87V36.1H28a7.89 7.89 0 0 1-1.29-.106v-6.86zM25.42 32.3v3.365A7.748 7.748 0 0 1 21.3 32.3h4.12zM28 24.067h-1.29V22.8H28v1.267zM33.159 19h-1.29v-1.267h1.29V19zm5.159-5.067h-1.29v-1.266h1.29v1.266z" fill="#1943EF"/></svg>