<svg width="31" height="31" fill="none" xmlns="http://www.w3.org/2000/svg"><g clip-path="url(#clip0)" fill="#1943EF"><path d="M15.844.834C9.213.834 3.818 6.23 3.818 12.859c0 .755.07 1.516.214 2.258a11.844 11.844 0 0 0 .887 2.774c1.296 3.05 4.145 7.735 10.396 12.754a.854.854 0 0 0 1.07 0c6.245-5.019 9.1-9.704 10.396-12.754a11.711 11.711 0 0 0 .886-2.774 12.31 12.31 0 0 0 .214-2.258C27.87 6.23 22.472.834 15.844.834zm10.138 13.987c0 .013-.006.026-.006.038l-.057.27v.013a9.981 9.981 0 0 1-.698 2.05c-.006.007-.006.02-.013.026-1.176 2.786-3.754 7.037-9.364 11.673-5.61-4.636-8.19-8.887-9.365-11.673-.007-.007-.007-.02-.013-.026a10.651 10.651 0 0 1-.698-2.05v-.012c-.038-.145-.05-.24-.057-.27 0-.013-.006-.026-.006-.045a10.271 10.271 0 0 1-.189-1.962c0-5.692 4.636-10.327 10.328-10.327 5.691 0 10.327 4.635 10.327 10.327 0 .667-.063 1.327-.19 1.968z"/><path d="M15.844 5.356c-4.207 0-7.635 3.428-7.635 7.635 0 4.208 3.428 7.635 7.635 7.635 4.208 0 7.635-3.427 7.635-7.635 0-4.207-3.427-7.635-7.635-7.635zm0 13.572a5.944 5.944 0 0 1-5.937-5.937 5.948 5.948 0 0 1 5.937-5.937 5.948 5.948 0 0 1 5.937 5.937c0 3.27-2.66 5.937-5.937 5.937z"/></g><defs><clipPath id="clip0"><path fill="#fff" d="M.85.834h30v30h-30z"/></clipPath></defs></svg>