<svg width="31" height="31" fill="none" xmlns="http://www.w3.org/2000/svg"><path d="M26.037 5.23A14.891 14.891 0 0 0 15.433.833c-4.009 0-7.77 1.56-10.605 4.395-5.48 5.48-5.86 14.252-.945 20.17-.482.97-1.256 2.099-2.404 2.663a1.396 1.396 0 0 0-.767 1.472 1.406 1.406 0 0 0 1.173 1.18c.286.044.691.088 1.186.088 1.326 0 3.28-.31 5.277-1.75a14.998 14.998 0 0 0 17.696-2.613 14.891 14.891 0 0 0 4.395-10.605 14.9 14.9 0 0 0-4.402-10.605zm-1.211 19.997a13.284 13.284 0 0 1-16.123 2.068.853.853 0 0 0-1.04.133.28.28 0 0 0-.07.05c-1.718 1.333-3.406 1.612-4.522 1.612h-.006c1.287-.939 2.1-2.334 2.575-3.419a.876.876 0 0 0 .044-.552.89.89 0 0 0-.21-.482c-4.642-5.245-4.4-13.236.56-18.196 5.18-5.182 13.61-5.182 18.786 0 5.188 5.182 5.188 13.604.006 18.786z" fill="#1943EF"/><path d="M15.432 16.887a1.053 1.053 0 1 0 0-2.106 1.053 1.053 0 0 0 0 2.106zm5.429 0a1.053 1.053 0 1 0 0-2.106 1.053 1.053 0 0 0 0 2.106zm-10.857 0a1.053 1.053 0 1 0 0-2.106 1.053 1.053 0 0 0 0 2.106z" fill="#1943EF"/></svg>