<svg width="31" height="31" fill="none" xmlns="http://www.w3.org/2000/svg"><g clip-path="url(#clip0)" fill="#1943EF"><path d="M27.05 4.419H4.382A3.672 3.672 0 0 0 .713 8.087v15.494A3.672 3.672 0 0 0 4.38 27.25h22.663a3.672 3.672 0 0 0 3.669-3.669V8.094a3.668 3.668 0 0 0-3.662-3.675zm1.993 19.162a1.995 1.995 0 0 1-1.992 1.992H4.38a1.995 1.995 0 0 1-1.992-1.992V8.094c0-1.099.894-1.993 1.992-1.993h22.663c1.1 0 1.993.894 1.993 1.993V23.58h.006z"/><path d="M19.633 15.642l7.337-6.58a.842.842 0 0 0 .062-1.185.842.842 0 0 0-1.185-.063l-10.118 9.082-1.974-1.763c-.007-.006-.013-.012-.013-.019a1.244 1.244 0 0 0-.136-.118L5.573 7.808a.837.837 0 0 0-1.185.069.837.837 0 0 0 .068 1.185l7.424 6.636-7.393 6.92a.841.841 0 0 0 1.149 1.23l7.504-7.02 2.036 1.818a.837.837 0 0 0 1.118-.006l2.091-1.875 7.462 7.09a.837.837 0 0 0 1.155-1.217l-7.369-6.996z"/></g><defs><clipPath id="clip0"><path fill="#fff" d="M.713.834h30v30h-30z"/></clipPath></defs></svg>