<svg width="40" height="2" viewBox="0 0 40 2" fill="none" xmlns="http://www.w3.org/2000/svg">
<path fill-rule="evenodd" clip-rule="evenodd" d="M0 1C0 0.723858 0.223858 0.5 0.5 0.5H1.42857C1.70471 0.5 1.92857 0.723858 1.92857 1C1.92857 1.27614 1.70471 1.5 1.42857 1.5H0.5C0.223858 1.5 0 1.27614 0 1ZM5.57143 1C5.57143 0.723858 5.79529 0.5 6.07143 0.5H7.92857C8.20471 0.5 8.42857 0.723858 8.42857 1C8.42857 1.27614 8.20471 1.5 7.92857 1.5H6.07143C5.79529 1.5 5.57143 1.27614 5.57143 1ZM12.0714 1C12.0714 0.723858 12.2953 0.5 12.5714 0.5H14.4286C14.7047 0.5 14.9286 0.723858 14.9286 1C14.9286 1.27614 14.7047 1.5 14.4286 1.5H12.5714C12.2953 1.5 12.0714 1.27614 12.0714 1ZM18.5714 1C18.5714 0.723858 18.7953 0.5 19.0714 0.5H20.9286C21.2047 0.5 21.4286 0.723858 21.4286 1C21.4286 1.27614 21.2047 1.5 20.9286 1.5H19.0714C18.7953 1.5 18.5714 1.27614 18.5714 1ZM25.0714 1C25.0714 0.723858 25.2953 0.5 25.5714 0.5H27.4286C27.7047 0.5 27.9286 0.723858 27.9286 1C27.9286 1.27614 27.7047 1.5 27.4286 1.5H25.5714C25.2953 1.5 25.0714 1.27614 25.0714 1ZM31.5714 1C31.5714 0.723858 31.7953 0.5 32.0714 0.5H33.9286C34.2047 0.5 34.4286 0.723858 34.4286 1C34.4286 1.27614 34.2047 1.5 33.9286 1.5H32.0714C31.7953 1.5 31.5714 1.27614 31.5714 1ZM38.0714 1C38.0714 0.723858 38.2953 0.5 38.5714 0.5H39.5C39.7761 0.5 40 0.723858 40 1C40 1.27614 39.7761 1.5 39.5 1.5H38.5714C38.2953 1.5 38.0714 1.27614 38.0714 1Z" fill="#A8A8D1"/>
</svg>
