<svg width="119" height="118" fill="none" xmlns="http://www.w3.org/2000/svg"><g clip-path="url(#clip0)" fill="#1943EF"><path d="M100.848 17.28C89.705 6.138 74.888 0 59.128 0 43.37 0 28.554 6.137 17.41 17.28 6.266 28.425.129 43.24.129 59c0 15.76 6.137 30.576 17.28 41.719C28.554 111.863 43.37 118 59.13 118c15.76 0 30.576-6.137 41.719-17.281C111.993 89.576 118.13 74.759 118.13 59c0-15.76-6.137-30.576-17.281-41.72zm-41.72 91.501c-27.448 0-49.78-22.332-49.78-49.781 0-27.45 22.332-49.781 49.78-49.781 27.45 0 49.782 22.332 49.782 49.781 0 27.45-22.332 49.781-49.781 49.781z"/><path d="M29.953 62.39L58.14 74.178c.316.133.653.198.989.198.335 0 .673-.065.988-.198l28.188-11.786a2.563 2.563 0 0 0 1.096-3.854L61.212 19.074A2.597 2.597 0 0 0 59.13 18c-.803 0-1.605.4-2.086 1.074L28.857 58.537a2.564 2.564 0 0 0 1.096 3.854zm31.738 5.573V28.56l21.674 30.343-21.674 9.061zM56.566 28.56v39.404l-21.673-9.06L56.566 28.56z"/><path d="M89.482 70.606a2.582 2.582 0 0 0-3.153-.99l-27.2 11.37-27.199-11.37a2.57 2.57 0 0 0-3.153.99 2.563 2.563 0 0 0 .448 3.276L57.413 99.34c.488.44 1.1.661 1.716.661.616 0 1.229-.22 1.717-.66l28.187-25.458a2.563 2.563 0 0 0 .449-3.276zM59.13 93.984L43.785 80.128 58.14 86.13c.63.265 1.346.265 1.977 0l14.357-6L59.13 93.983z"/></g><defs><clipPath id="clip0"><path d="M.129 0h118v118h-118V0z" fill="#fff"/></clipPath></defs></svg>