<svg width="37" height="37" viewBox="0 0 37 37" fill="none" xmlns="http://www.w3.org/2000/svg">
<path d="M0 18.5C0 28.7173 8.28273 37 18.5 37C28.7173 37 37 28.7173 37 18.5C37 8.28273 28.7173 0 18.5 0C8.28273 0 0 8.28273 0 18.5Z" fill="#1943EF"/>
<path d="M17.2544 7.51493L18.5 6.60493L19.7455 7.51493L19.2539 6.05243L20.5322 5.14243H18.9589L18.5 3.67993L18.0083 5.14243H16.4678L17.7133 6.05243L17.2544 7.51493Z" fill="#FFF100"/>
<path d="M10.7974 9.20487L12.043 8.32737L13.2885 9.20487L12.8296 7.74237L14.0752 6.86487H12.5346L12.043 5.36987L11.5513 6.86487H10.0107L11.2563 7.74237L10.7974 9.20487Z" fill="#FFF100"/>
<path d="M7.32226 10.0498L6.86337 11.5448H5.29004L6.56837 12.4548L6.07671 13.8848L7.32226 13.0073L8.56782 13.8848L8.10893 12.4548L9.35448 11.5448H7.81393L7.32226 10.0498Z" fill="#FFF100"/>
<path d="M5.61969 19.3779L6.83247 20.2879L6.37358 18.8254L7.65191 17.9154H6.07858L5.61969 16.4529L5.12802 17.9154H3.55469L4.83302 18.8254L4.34135 20.2879L5.61969 19.3779Z" fill="#FFF100"/>
<path d="M7.81393 24.3177L7.32226 22.8552L6.86337 24.3177H5.29004L6.56837 25.2277L6.07671 26.6902L7.32226 25.7802L8.56782 26.6902L8.10893 25.2277L9.35448 24.3177H7.81393Z" fill="#FFF100"/>
<path d="M12.5346 28.9977L12.043 27.5352L11.5841 28.9977H10.0107L11.2891 29.9077L10.7974 31.3702L12.043 30.4602L13.2885 31.3702L12.8296 29.9077L14.0752 28.9977H12.5346Z" fill="#FFF100"/>
<path d="M18.9589 30.6876L18.5 29.2251L18.0083 30.6876H16.4678L17.7133 31.5976L17.2544 33.0601L18.5 32.1501L19.7455 33.0601L19.2539 31.5976L20.5322 30.6876H18.9589Z" fill="#FFF100"/>
<path d="M25.4155 28.9977L24.9238 27.5352L24.4322 28.9977H22.8916L24.1372 29.9077L23.6783 31.3702L24.9238 30.4602L26.1694 31.3702L25.7105 29.9077L26.956 28.9977H25.4155Z" fill="#FFF100"/>
<path d="M30.1372 24.3177L29.6455 22.8552L29.1866 24.3177H27.6133L28.8916 25.2277L28.4 26.6902L29.6455 25.7802L30.8911 26.6902L30.4322 25.2277L31.6777 24.3177H30.1372Z" fill="#FFF100"/>
<path d="M33.3808 17.9152H31.8403L31.3486 16.4202L30.8897 17.9152H29.3164L30.5947 18.7927L30.1031 20.2552L31.3486 19.3452L32.5942 20.2552L32.1353 18.7927L33.3808 17.9152Z" fill="#FFF100"/>
<path d="M28.4 13.8848L29.6455 12.9748L30.8911 13.8848L30.4322 12.4223L31.6777 11.5123H30.1372L29.6455 10.0498L29.1866 11.5123H27.6133L28.8916 12.4223L28.4 13.8848Z" fill="#FFF100"/>
<path d="M24.9233 5.36987L24.4644 6.86487H22.9238L24.1694 7.74237L23.7105 9.20487L24.9561 8.32737L26.2016 9.20487L25.7099 7.74237L26.9883 6.86487H25.4149L24.9233 5.36987Z" fill="#FFF100"/>
</svg>
