<svg width="27" height="29" fill="none" xmlns="http://www.w3.org/2000/svg"><g clip-path="url(#clip0)"><path d="M16.78 28.213c0 .316-2.414.571-5.392.571-2.977 0-5.391-.256-5.391-.571 0-.316 2.414-.571 5.392-.571 2.977 0 5.391.255 5.391.57z" fill="#E2E2E2"/><path d="M19.12 14.785c-1.272 4.469-3.817 7.908-7.583 10.247l-.149-.095v2.892l.113.061h.072c7.813-4.11 10.166-11.196 10.795-16.228l-3.248 3.123zm-7.569-11.11a67.437 67.437 0 0 0 8.133 3.79l1.988-1.91C15.857 3.43 11.542.784 11.542.784h-.009l-.145.088v2.892l.163-.09z" fill="#5B7BBB"/><path d="M3.685 13.742a24.05 24.05 0 0 1-.6-6.145 61.77 61.77 0 0 0 8.303-3.83V.873c-.828.506-5.13 3.05-10.75 4.952 0 0-2.183 15.104 10.75 22.003v-2.892c-3.97-2.519-6.56-6.277-7.703-11.196z" fill="#526DA6"/><path d="M26.217 5.374l-.835-.803a.992.992 0 0 0-1.364 0L13.004 15.164a.757.757 0 0 1-.982.051L7.637 11.82a.99.99 0 0 0-1.356.141l-.74.885a.903.903 0 0 0 .146 1.304l6.561 5.08a.757.757 0 0 0 .981-.05L26.217 6.686a.903.903 0 0 0 0-1.312z" fill="#74B65F"/></g><defs><clipPath id="clip0"><path fill="#fff" d="M.5.784h26v28H.5z"/></clipPath></defs></svg>