<svg width="45" height="45" fill="none" xmlns="http://www.w3.org/2000/svg"><path d="M23.088 24.56a.704.704 0 0 0-.254-.01 1.678 1.678 0 0 1-1.484-1.663.738.738 0 1 0-1.476 0 3.158 3.158 0 0 0 2.322 3.04v.738a.738.738 0 1 0 1.476 0v-.693a3.152 3.152 0 0 0-.646-6.237 1.676 1.676 0 1 1 1.676-1.676.738.738 0 0 0 1.476 0 3.158 3.158 0 0 0-2.506-3.086v-.672a.738.738 0 1 0-1.476 0v.717a3.152 3.152 0 0 0 .83 6.192 1.675 1.675 0 0 1 .062 3.35z" fill="#1943EF"/><path d="M12.323 20.53c0 5.91 4.792 10.703 10.703 10.703 5.912 0 10.704-4.792 10.704-10.704 0-5.911-4.792-10.703-10.704-10.703-5.908.006-10.697 4.795-10.703 10.703zm10.703-9.228a9.227 9.227 0 0 1 9.228 9.227 9.227 9.227 0 0 1-9.228 9.228 9.227 9.227 0 0 1-9.227-9.228 9.238 9.238 0 0 1 9.227-9.227z" fill="#1943EF"/><path d="M37.369 33.053l-5.782 2.731a4.71 4.71 0 0 0-4.015-2.477l-5.338-.147a5.636 5.636 0 0 1-2.426-.626l-.543-.282a9.58 9.58 0 0 0-8.874.01l.034-1.23a.738.738 0 0 0-.718-.759l-5.853-.161a.738.738 0 0 0-.758.717l-.354 12.845a.738.738 0 0 0 .718.758l5.853.161h.02c.4 0 .728-.318.739-.718l.016-.614 1.521-.814a2.609 2.609 0 0 1 1.947-.213l9.08 2.548A9.718 9.718 0 0 0 24.68 45c1.42 0 2.823-.305 4.114-.898a.686.686 0 0 0 .091-.05l13.166-8.516a.738.738 0 0 0 .242-.983 3.729 3.729 0 0 0-4.924-1.5zm-33.13 9.924l.312-11.37 4.378.121-.313 11.37-4.377-.121zm23.89-.193a8.37 8.37 0 0 1-5.118.571l-9.056-2.542a4.082 4.082 0 0 0-3.043.333l-.777.416.208-7.56a8.114 8.114 0 0 1 8.243-.439l.543.282c.95.49 1.996.76 3.064.791l5.338.147a3.238 3.238 0 0 1 3.077 2.58l-7.95-.22a.739.739 0 0 0-.042 1.476l8.775.242h.02c.4 0 .727-.319.738-.718a4.684 4.684 0 0 0-.071-.958l5.93-2.802a2.255 2.255 0 0 1 2.568.349l-12.447 8.052zM23.764 7.75V.738a.738.738 0 0 0-1.476 0V7.75a.738.738 0 0 0 1.476 0zm5.536 0V4.43a.738.738 0 0 0-1.476 0v3.32a.738.738 0 0 0 1.476 0zm-11.071 0V4.43a.738.738 0 0 0-1.477 0v3.32a.738.738 0 0 0 1.477 0z" fill="#1943EF"/></svg>