<svg width="45" height="45" fill="none" xmlns="http://www.w3.org/2000/svg"><g clip-path="url(#clip0)" fill="#1943EF"><path d="M19.615 28.465c-.167-.055-.333-.166-.5-.222l-.222-.111.056-.277.166-1.388.056-.499.444.222c.055.055.11.055.222.111.055.056.11.056.221.11l.5.167c.166.056.333.111.5.111.166 0 .277.056.443.056.167 0 .278.055.444.055h.555c.11 0 .277-.055.388-.055.111-.056.222-.056.333-.111.111-.056.222-.111.278-.222.055-.055.166-.166.222-.277.055-.112.11-.222.11-.333 0-.111.056-.222 0-.333 0-.111-.055-.222-.055-.333-.055-.111-.11-.222-.166-.278a.433.433 0 0 0-.222-.222c-.056-.055-.167-.11-.278-.166l-.333-.167c-.11-.055-.222-.11-.332-.11-.223-.056-.444-.167-.666-.278l-.666-.333c-.222-.11-.389-.222-.61-.333a2.98 2.98 0 0 1-.5-.388c-.166-.111-.277-.278-.444-.444-.11-.167-.222-.333-.333-.5a2.71 2.71 0 0 1-.222-.61c-.055-.222-.055-.444-.055-.61 0-.278 0-.555.055-.777.056-.222.111-.5.222-.721.111-.222.222-.444.333-.61.167-.223.278-.39.5-.556.166-.166.388-.277.61-.444.222-.11.444-.221.666-.277l.11-.055v-1.61h1.887v1.499h.111c.111 0 .222.055.389.055.11.056.277.056.388.111.111 0 .222.056.277.056.056 0 .167.055.278.11l.277.111-.055.278-.167 1.276-.055.444-.388-.11c-.056 0-.167-.056-.278-.112-.055 0-.166-.055-.277-.055-.167-.111-.333-.167-.444-.167-.111 0-.278-.055-.389-.055h-.554c-.167 0-.278.055-.389.055l-.333.167c-.11.055-.166.166-.277.222-.056.11-.111.166-.167.277-.055.111-.055.222-.11.333v.388c0 .111.055.222.11.333.056.111.111.222.167.278l.222.222c.11.055.166.11.277.166l.333.166c.111.056.222.111.333.111.222.056.444.167.666.278a5.8 5.8 0 0 1 .61.333c.167.11.389.222.555.333.166.11.333.277.5.388.166.111.277.278.388.444.11.167.222.333.333.5.11.166.166.388.222.61.055.222.055.388.055.61 0 .278 0 .5-.055.777-.056.222-.111.5-.222.721-.111.222-.222.444-.389.61-.166.167-.333.39-.5.556-.166.166-.387.277-.61.444-.221.11-.499.221-.72.277l-.112.055v1.61h-1.886v-1.554h-.111c-.222 0-.389-.056-.61-.111-.223-.056-.389-.111-.611-.167-.166.056-.333 0-.5-.055z"/><path d="M22.389 11.874c-6.159 0-11.153 4.994-11.153 11.153 0 6.16 4.994 11.153 11.153 11.153 6.16 0 11.153-5.05 11.153-11.153 0-6.103-4.994-11.153-11.153-11.153zm0 20.308c-5.05 0-9.21-4.106-9.21-9.21 0-5.105 4.16-9.156 9.21-9.156 5.05 0 9.21 4.106 9.21 9.211s-4.16 9.155-9.21 9.155z"/><path d="M39.923 4.328c-.278-.166-.61-.222-.888-.111-1.942.777-3.828 1.165-5.66 1.165-6.436 0-10.154-4.938-10.154-4.994-.166-.277-.5-.388-.776-.388a.97.97 0 0 0-.777.388c-.056.056-3.718 4.939-10.154 4.994-1.832 0-3.718-.388-5.66-1.165-.278-.111-.666-.111-.888.111-.277.166-.444.5-.444.832v20.31c0 7.102 5.549 16.202 17.7 19.475.056 0 .167.056.278.056.11 0 .166 0 .277-.056 12.152-3.273 17.7-12.373 17.7-19.475V5.105c-.11-.333-.277-.61-.554-.777zm-1.554 21.085c0 6.326-4.994 14.427-15.98 17.479-10.986-3.052-15.98-11.153-15.98-17.479V6.492c1.72.555 3.384.832 5.049.832 5.66 0 9.433-3.218 10.931-4.827 1.554 1.609 5.271 4.827 10.93 4.827 1.666 0 3.33-.277 5.05-.832v18.921z"/></g><defs><clipPath id="clip0"><path fill="#fff" d="M0 0h45v45H0z"/></clipPath></defs></svg>