<svg width="42" height="42" fill="none" xmlns="http://www.w3.org/2000/svg"><path d="M9.844 26.906c.724 0 1.312.589 1.312 1.313h1.313c0-1.22-.84-2.239-1.969-2.532V24.28H9.187v1.313H7.22v2.625a2.628 2.628 0 0 0 2.625 2.625c.724 0 1.312.588 1.312 1.312v1.313H9.844a1.314 1.314 0 0 1-1.313-1.313H7.22c0 1.22.84 2.239 1.968 2.532v1.406H10.5V34.78h1.969v-2.625a2.628 2.628 0 0 0-2.625-2.625 1.314 1.314 0 0 1-1.314-1.31v-1.313h1.313z" fill="#1943EF"/><path d="M3.281 38.719h13.125V21.656H3.281V38.72zm1.313-15.75h10.5v14.437h-10.5V22.97zm-1.313-10.5h1.313v1.312H3.28V12.47zm2.625 0H26.25v1.312H5.906V12.47zm-2.625 2.625H26.25v1.312H3.281v-1.312zm0 2.625H17.72v1.312H3.28V17.72zM17.719 5.906h1.312V7.22H17.72V5.906zm-2.625 0h1.312V7.22h-1.312V5.906zm-2.625 0h1.312V7.22H12.47V5.906zm15.094 31.5h1.312v1.313h-1.313v-1.313zm-2.625 0h1.312v1.313h-1.313v-1.313zm-2.625 0h1.312v1.313h-1.313v-1.313z" fill="#1943EF"/><path d="M35.808 18.918l2.072-8.426c.515-1.806-.09-3.739-1.579-5.044-1.31-1.148-3.09-1.635-4.801-1.467V.656H7.603L.656 7.603v33.74H31.5V36.07c.218.011.434.024.656.024 5.066 0 9.188-2.944 9.188-6.563v-4.593c0-2.632-2.2-4.993-5.536-6.02zm4.223 6.02c0 2.894-3.532 5.25-7.875 5.25-4.342 0-7.875-2.356-7.875-5.25 0-2.011 1.77-3.847 4.47-4.72.08.569.124 1.142.124 1.717v2.502l.069.138c.035.069.865 1.675 3.212 1.675 2.348 0 3.178-1.607 3.213-1.675l.069-.139v-2.502c0-.574.044-1.147.123-1.716 2.7.873 4.47 2.709 4.47 4.72zM35.436 6.434c1.12.983 1.562 2.365 1.176 3.72l-2.088 8.488a13.803 13.803 0 0 0-.399 3.292v2.156c-.188.254-.758.846-1.969.846-1.216 0-1.785-.597-1.968-.844v-2.158c0-1.108-.135-2.217-.4-3.293L27.7 10.156l-.006-.024c-.38-1.332.062-2.714 1.182-3.697 1.808-1.584 4.75-1.585 6.56 0zM26.3 9.844H11.156v-5.25h16.407v1.304c-1 1.107-1.459 2.536-1.264 3.946zM7.219 2.897v4.322H2.897l4.322-4.322zM30.187 40.03H1.97V8.53h6.56V1.97h21.657v2.28c-.458.142-.9.332-1.313.577V3.281H9.844v7.875h16.751l1.91 7.762c-3.337 1.027-5.536 3.388-5.536 6.02v4.593c0 3.136 3.096 5.761 7.218 6.407v4.093zm9.844-10.5c0 2.895-3.532 5.25-7.875 5.25-4.342 0-7.875-2.355-7.875-5.25V28.3c1.607 1.912 4.531 3.199 7.875 3.199 3.345 0 6.268-1.287 7.875-3.2v1.231z" fill="#1943EF"/></svg>