<svg width="71" height="71" fill="none" xmlns="http://www.w3.org/2000/svg"><g clip-path="url(#clip0)" fill="#1943EF"><path d="M64.618 4.699H6.285a5.84 5.84 0 0 0-5.833 5.833V50.2a5.84 5.84 0 0 0 5.833 5.833h23.333V53.7H6.285a3.5 3.5 0 0 1-3.5-3.5V10.532a3.5 3.5 0 0 1 3.5-3.5h58.333a3.5 3.5 0 0 1 3.5 3.5V50.2a3.5 3.5 0 0 1-3.5 3.5h-1.166v2.333h1.166a5.84 5.84 0 0 0 5.834-5.833V10.532A5.84 5.84 0 0 0 64.618 4.7z"/><path d="M64.618 47.866V10.532c0-.644-.522-1.166-1.166-1.166h-56c-.645 0-1.167.522-1.167 1.166V50.2c0 .644.522 1.167 1.167 1.167h30.333v-2.334H8.618V11.7h53.667v36.167h2.333z"/><path d="M10.952 14.032h2.333v2.334h-2.333v-2.334zm0 4.667h4.666v2.333h-4.666V18.7zm0 4.667h4.666v2.333h-4.666v-2.333zm0 4.666h4.666v2.334h-4.666v-2.334zm0 4.667h4.666v2.333h-4.666V32.7zm0 4.667h4.666v2.333h-4.666v-2.333zm0 4.666h4.666v2.334h-4.666v-2.334zm49-9.333h-35v-3.017l2.152-2.153 1.544 2.317c.192.293.506.483.854.52h.116c.31 0 .607-.124.825-.342l5.009-5.009 2.675 2.675c.23.235.55.36.877.34.328-.015.634-.166.845-.417l4.936-5.925 4.936 5.925c.21.251.517.402.845.418.328.02.648-.105.877-.34l2.675-2.676 1.509 1.509c.236.243.57.368.907.338a1.17 1.17 0 0 0 .85-.467l3.5-4.666-1.865-1.4-2.693 3.59-1.383-1.382a1.166 1.166 0 0 0-1.65 0l-2.597 2.597-5.016-6.02a1.21 1.21 0 0 0-1.794 0l-5.017 6.02-2.597-2.597a1.166 1.166 0 0 0-1.65 0l-4.828 4.828-1.543-2.317a1.168 1.168 0 0 0-1.795-.178l-1.504 1.512V18.7h-2.334v15.166c0 .645.523 1.167 1.167 1.167h36.167V32.7zM22.618 14.032h7v2.334h-7v-2.334zm9.334 0h2.333v2.334h-2.333v-2.334zm-9.334 23.334h4.667v2.333h-4.667v-2.333zm7 0h2.334v2.333h-2.334v-2.333zm-7 4.666h4.667v2.334h-4.667v-2.334zm7 0h2.334v2.334h-2.334v-2.334zm7-4.666h2.334v2.333h-2.334v-2.333zm14 0h4.667v2.333h-4.667v-2.333zm7 0h2.334v2.333h-2.334v-2.333zm-7 4.666h4.667v2.334h-4.667v-2.334zm7 0h2.334v2.334h-2.334v-2.334z"/><path d="M58.202 47.912a3.51 3.51 0 0 0-2.915.846 3.493 3.493 0 0 0-4.666 0 3.638 3.638 0 0 0-3.5-.694v-5.907a3.598 3.598 0 0 0-2.917-3.578 3.499 3.499 0 0 0-4.086 3.453v14.273l-3.096-1.857a3.204 3.204 0 0 0-3.103-.117l-.185.091a3.227 3.227 0 0 0-.43 5.513l7.303 5.216c.199.14.435.215.678.214h18.667c.644 0 1.166-.522 1.166-1.166V51.49a3.598 3.598 0 0 0-2.916-3.578zm.583 15.12H41.658l-7-5a.893.893 0 0 1 .117-1.527l.184-.09a.882.882 0 0 1 .857.032l4.864 2.917a1.167 1.167 0 0 0 1.772-.999V42.032a1.168 1.168 0 0 1 1.37-1.149c.583.142.985.674.963 1.274v9.208a1.167 1.167 0 1 0 2.334 0 1.167 1.167 0 0 1 2.333 0 1.167 1.167 0 0 0 2.333 0 1.167 1.167 0 0 1 2.334 0 1.167 1.167 0 0 0 2.333 0 1.167 1.167 0 0 1 1.37-1.149c.583.143.985.675.963 1.274v11.542zm-40.833-49h2.333V46.7h-2.333V14.032z"/></g><defs><clipPath id="clip0"><path fill="#fff" d="M.452.032h70v70h-70z"/></clipPath></defs></svg>