<svg width="72" height="71" fill="none" xmlns="http://www.w3.org/2000/svg"><path d="M70.875 1.11H1.125v57.687H38.25V69.89h23.625V58.797h9V1.109zm-2.25 8.874h-13.5V3.328h13.5v6.656zm-15.75-6.656v6.656h-49.5V3.328h49.5zm6.75 64.344H56.25V53.25H54v14.422H40.5V56.675c0-1.878-1.36-3.486-3.233-3.82l-3.6-.646c-3.211-.577-5.542-3.33-5.542-6.55V32.728c0-.918.757-1.664 1.688-1.664.93 0 1.687.746 1.687 1.664v10.539c0 2.447 2.018 4.437 4.5 4.437h4.748l2.517 9.936 3.985-3.93 3.985 3.93 2.306-9.1c3.576 1.541 6.084 5.06 6.084 9.148v9.985zm-18-27.734c0-3.059 2.523-5.547 5.625-5.547s5.625 2.488 5.625 5.547c0 3.058-2.523 5.546-5.625 5.546s-5.625-2.488-5.625-5.547zM47.25 50.14l-1.647-2.437h3.295L47.25 50.14zm-2.765 3.16l-1.319-5.2 2.636 3.9-1.317 1.3zm6.848-5.199L50.015 53.3 48.698 52l2.635-3.899zm10.485 8.478c-.484-5.257-4.362-9.553-9.451-10.75 1.685-1.425 2.758-3.535 2.758-5.89 0-4.283-3.534-7.766-7.875-7.766s-7.875 3.483-7.875 7.766a7.68 7.68 0 0 0 2.375 5.546H36c-1.24 0-2.25-.995-2.25-2.218v-10.54c0-2.14-1.766-3.882-3.938-3.882-2.17 0-3.937 1.741-3.937 3.883V45.66c0 4.29 3.108 7.964 7.39 8.73l3.599.647c.77.138 1.322.78 1.368 1.541H3.375V12.203h65.25v44.375h-6.807z" fill="#1943EF"/><path d="M22.83 33.606l-3.705 3.654v-.65h-13.5v13.312h13.5v-9.525l5.295-5.222-1.59-1.569zm-5.955 14.097h-9v-8.875h9v.65l-4.5 4.438-2.58-2.544-1.59 1.569 4.17 4.112 4.5-4.437v5.087z" fill="#1943EF"/><path d="M19.125 21.728v-.65h-13.5v13.313h13.5v-9.525l5.295-5.222-1.59-1.569-3.705 3.653zm-2.25 10.444h-9v-8.875h9v.65l-4.5 4.438-2.58-2.544-1.59 1.569 4.17 4.112 4.5-4.438v5.088zm20.25-8.875h29.25v2.219h-29.25v-2.22zm0 4.437h29.25v2.22h-29.25v-2.22zm27 4.438h2.25v2.219h-2.25v-2.22zm-4.5 0h2.25v2.219h-2.25v-2.22zm-4.5 0h2.25v2.219h-2.25v-2.22zm-9 24.406h2.25v2.219h-2.25v-2.219zm0 4.438h2.25v2.218h-2.25v-2.218zM5.625 5.547h2.25v2.219h-2.25v-2.22zm4.5 0h2.25v2.219h-2.25v-2.22zm4.5 0h2.25v2.219h-2.25v-2.22z" fill="#1943EF"/></svg>