<svg width="66" height="66" fill="none" xmlns="http://www.w3.org/2000/svg"><g clip-path="url(#clip0)" fill="#1943EF"><path d="M62.987.406C16.892.406 19.96.394 19.302.42 14.284.631 9.61 2.717 6.14 6.293-2.97 15.68-.046 30.97 11.635 36.598H7.338c-2.42 0-4.389 1.94-4.389 4.323 0 2.383 1.97 4.322 4.39 4.322h1.157a4.261 4.261 0 0 0 0 4.798H7.338c-2.42 0-4.389 1.939-4.389 4.322 0 2.384 1.97 4.323 4.39 4.323h.354c-1.935 2.86.154 6.717 3.653 6.717h51.641c1.26 0 2.283-1.008 2.283-2.248v-60.5c0-1.24-1.024-2.25-2.283-2.25zM7.338 43.316c-1.34 0-2.431-1.074-2.431-2.395s1.091-2.395 2.431-2.395h26.2c1.342 0 2.433 1.074 2.433 2.395 0 1.32-1.091 2.395-2.433 2.395h-26.2zm18.396 6.721H12.146c-1.34 0-2.432-1.075-2.432-2.395s1.091-2.395 2.432-2.395h13.588a4.263 4.263 0 0 0 0 4.79zm25.047 1.931c1.341 0 2.432 1.075 2.432 2.395s-1.091 2.395-2.432 2.395h-26.2c-1.341 0-2.432-1.075-2.432-2.395s1.09-2.395 2.432-2.395h26.2zm-43.443 4.79c-1.34 0-2.431-1.075-2.431-2.395s1.091-2.395 2.431-2.395h13.59a4.264 4.264 0 0 0 0 4.79H7.338zm17.598 6.718h-13.59c-1.341 0-2.432-1.074-2.432-2.395s1.09-2.395 2.432-2.395h13.59a4.257 4.257 0 0 0-.736 2.395c0 .885.271 1.709.736 2.395zm29.852 0h-26.2c-1.34 0-2.431-1.074-2.431-2.395s1.09-2.395 2.432-2.395h26.199c1.34 0 2.431 1.074 2.431 2.395s-1.09 2.395-2.431 2.395zm8.526-.321a.324.324 0 0 1-.327.321H58.44c1.94-2.858-.152-6.718-3.651-6.718h-.355a4.26 4.26 0 0 0-.002-4.793h1.156c2.42 0 4.39-1.94 4.39-4.323 0-2.383-1.97-4.322-4.39-4.322h-5.705a.972.972 0 0 0-.979.963c0 .532.439.964.98.964h5.704c1.342 0 2.432 1.074 2.432 2.395 0 1.32-1.09 2.395-2.432 2.395h-26.2c-1.34 0-2.432-1.075-2.432-2.395s1.092-2.395 2.432-2.395h16.581c.54 0 .979-.431.979-.964a.971.971 0 0 0-.979-.963H37.19a4.264 4.264 0 0 0 .739-2.4c0-2.383-1.97-4.322-4.39-4.322H28.6a19.296 19.296 0 0 0 7.848-6.88.956.956 0 0 0-.298-1.331.988.988 0 0 0-1.351.293c-3.212 4.948-8.933 8.133-15.338 7.907-9.318-.34-16.728-7.84-16.728-17.135 0-9.554 8.087-17.82 18.685-17.077 11.778.836 18.97 12.603 15.03 23.045a.96.96 0 0 0 .578 1.239.983.983 0 0 0 1.257-.569c3.446-9.152-.705-19.439-9.653-23.757h34.358c.18 0 .327.144.327.321v60.5z"/><path d="M19.805 25.452c-1.558 0-2.26-.678-2.771-1.174-.284-.274-.508-.49-.798-.49-.522 0-.968.625-.968 1.138 0 .91 1.522 2.242 3.883 2.478v1.999a.97.97 0 0 0 .979.963.97.97 0 0 0 .978-.963v-2.068c2.243-.408 3.546-1.989 3.546-4.403 0-5.69-6.866-4.015-6.866-7.255 0-1.607 1.437-1.945 2.643-1.945 1.151 0 1.778.319 2.236.55.254.13.454.231.665.231.62 0 .946-.741.946-1.138 0-.968-1.737-1.415-3.17-1.523V9.526a.971.971 0 0 0-.978-.963.971.971 0 0 0-.98.963v2.41l.001.004c-1.498.268-3.508 1.142-3.508 3.902 0 5.127 6.867 3.326 6.867 7.255 0 1.519-.961 2.355-2.705 2.355z"/><path d="M8.595 11.389a.955.955 0 0 0 .229 1.344.988.988 0 0 0 1.365-.226c4.977-6.88 15.291-6.637 20.023.198 5.964 8.617-1.403 20.138-11.831 18.646-7.41-1.06-12.235-8.473-9.82-15.675a.96.96 0 0 0-.623-1.217.982.982 0 0 0-1.236.613A13.748 13.748 0 0 0 8.44 27.314c4.706 6.799 14.437 8.188 20.908 2.723 5.467-4.617 6.545-12.546 2.48-18.418-5.5-7.945-17.468-8.2-23.233-.23zM60.23 7.655H40.726a.971.971 0 0 0-.979.963c0 .532.438.964.979.964H60.23c.541 0 .98-.432.98-.964a.971.971 0 0 0-.98-.963zm0 7.195H43.01a.971.971 0 0 0-.978.964c0 .532.438.964.978.964h17.22c.541 0 .98-.432.98-.964a.971.971 0 0 0-.98-.963zm-1.124 6.695a.985.985 0 0 0-1.393-.53L51.9 24.139a.956.956 0 0 0-.39 1.308.986.986 0 0 0 1.327.384l3.52-1.89-4.637 10.91-6.1-4.22a.992.992 0 0 0-1.153.02l-4.972 3.696a.954.954 0 0 0-.192 1.35c.326.425.94.51 1.37.189l4.404-3.274 6.513 4.506a.985.985 0 0 0 1.465-.417l5.096-11.99 1.155 3.27a.982.982 0 0 0 1.246.594.96.96 0 0 0 .602-1.227l-2.048-5.802z"/></g><defs><clipPath id="clip0"><path fill="#fff" d="M0 .403h66v65H0z"/></clipPath></defs></svg>