<svg width="66" height="65" fill="none" xmlns="http://www.w3.org/2000/svg"><g clip-path="url(#clip0)" fill="#1943EF"><path d="M62.455 5.84H40.946l-.401-1.73c-.371-1.598-1.792-2.714-3.456-2.714H3.545C1.59 1.396 0 2.963 0 4.888V49.32c0 1.925 1.59 3.492 3.545 3.492H30.43c.284 1.623 1.397 2.993 2.999 3.61l1.556.6a3.523 3.523 0 0 0 1.752 2.008v1.59c0 1.644 1.36 2.982 3.03 2.982h10.054c1.67 0 3.03-1.338 3.03-2.983v-1.59a3.488 3.488 0 0 0 1.933-3.107v-6.92h5.737c.888 0 1.61-.71 1.61-1.586v-35.23h1.934V49.32a1.6 1.6 0 0 1-1.61 1.587H58.33a.96.96 0 0 0-.967.952.96.96 0 0 0 .967.953h4.125c1.955 0 3.545-1.567 3.545-3.492V9.331c0-1.925-1.59-3.491-3.545-3.491zM38.66 4.534l.303 1.306h-8.33l-.4-1.73a3.495 3.495 0 0 0-.298-.81h7.154c.757 0 1.403.508 1.57 1.234zM26.777 3.301c.756 0 1.402.507 1.57 1.233l.303 1.306h-9.38l-.402-1.73a3.49 3.49 0 0 0-.297-.81h8.207zm-23.232 0H15.41c.757 0 1.403.507 1.571 1.233l.573 2.47c.101.433.492.74.943.74h43.957a1.6 1.6 0 0 1 1.611 1.587v.952H1.934V4.888a1.6 1.6 0 0 1 1.61-1.587zM32.29 51.99v-5.293c0-.68.561-1.235 1.25-1.238.339-.002.655.126.894.36.238.234.37.546.37.877v8.212l-.67-.259a2.84 2.84 0 0 1-1.844-2.66zm22.623-20.126v5.713H49.38v-5.713h5.535zm-7.469 5.713H41.25v-.83c0-.866-.362-1.713-.994-2.324a3.195 3.195 0 0 0-2.29-.908c-1.743.032-3.161 1.456-3.161 3.174v.888h-3.61v-5.713h16.25v5.713zM49.822 61.7H39.768a1.089 1.089 0 0 1-1.096-1.079v-1.206h12.246v1.206a1.09 1.09 0 0 1-1.096 1.08zm3.03-5.776c0 .875-.723 1.587-1.612 1.587H38.35c-.89 0-1.612-.712-1.612-1.587V36.69c0-.687.567-1.257 1.265-1.27h.022c.323 0 .634.128.877.363.263.255.414.606.414.965v11.748a.96.96 0 0 0 .967.952.96.96 0 0 0 .967-.952v-2.285c0-.7.579-1.27 1.29-1.27.71 0 1.288.57 1.288 1.27v2.285a.96.96 0 0 0 .967.952.96.96 0 0 0 .967-.952v-2.285c0-.7.578-1.27 1.289-1.27.71 0 1.289.57 1.289 1.27v2.285a.96.96 0 0 0 .967.952.96.96 0 0 0 .966-.952v-2.285c0-.687.567-1.257 1.265-1.27.33-.006.65.123.9.363.262.255.414.607.414.965v9.654zm7.347-8.823h-5.414v-.831a3.25 3.25 0 0 0-.994-2.323 3.186 3.186 0 0 0-2.29-.908 3.235 3.235 0 0 0-2.19.912 3.239 3.239 0 0 0-2.26-.913c-.878 0-1.675.347-2.256.91a3.236 3.236 0 0 0-2.256-.91 3.25 3.25 0 0 0-1.289.265v-3.82h13.986c.89 0 1.612-.711 1.612-1.587v-6.347c0-.875-.723-1.587-1.612-1.587H30.873a1.6 1.6 0 0 0-1.611 1.587v6.348c0 .875.722 1.586 1.611 1.586h3.932v4.326a3.228 3.228 0 0 0-1.257-.252h-.015c-1.751.008-3.176 1.418-3.176 3.142v.402H5.801V15.679a.96.96 0 0 0-.967-.952.96.96 0 0 0-.967.952v31.738c0 .875.723 1.587 1.612 1.587h24.878v1.904H3.545a1.6 1.6 0 0 1-1.611-1.587V12.188h58.265V47.1z"/><path d="M30.873 28.057h24.363c.89 0 1.612-.712 1.612-1.587v-6.348c0-.875-.723-1.587-1.612-1.587H30.873a1.6 1.6 0 0 0-1.611 1.587v6.348a1.6 1.6 0 0 0 1.611 1.587zm24.041-1.905H49.38V20.44h5.535v5.713zM31.195 20.44h16.25v5.713h-16.25V20.44zm-21.14 0h14.437a.96.96 0 0 0 .967-.953.96.96 0 0 0-.967-.952H10.055a.96.96 0 0 0-.967.952.96.96 0 0 0 .967.953zm0 3.808h14.437a.96.96 0 0 0 .967-.952.96.96 0 0 0-.967-.952H10.055a.96.96 0 0 0-.967.952.96.96 0 0 0 .967.952zm0 3.809h10.054a.96.96 0 0 0 .967-.952.96.96 0 0 0-.967-.953H10.055a.96.96 0 0 0-.967.953.96.96 0 0 0 .967.952zm0 3.808h14.437a.96.96 0 0 0 .967-.952.96.96 0 0 0-.967-.952H10.055a.96.96 0 0 0-.967.952.96.96 0 0 0 .967.952zm0 3.809h10.054a.96.96 0 0 0 .967-.952.96.96 0 0 0-.967-.953H10.055a.96.96 0 0 0-.967.953.96.96 0 0 0 .967.952zm0 3.681h6.187a.96.96 0 0 0 .967-.952.96.96 0 0 0-.967-.952h-6.187a.96.96 0 0 0-.967.952.96.96 0 0 0 .967.953zM6.316 7.744h6.575a.96.96 0 0 0 .966-.952.96.96 0 0 0-.966-.952H6.316a.96.96 0 0 0-.966.952.96.96 0 0 0 .966.952z"/></g><defs><clipPath id="clip0"><path fill="#fff" d="M0 0h66v65H0z"/></clipPath></defs></svg>